<svg version="1.1" id="Layer_1" xmlns="http://www.w3.org/2000/svg" xmlns:xlink="http://www.w3.org/1999/xlink" x="0px" y="0px"
	 width="100%" viewBox="0 0 464 464" enable-background="new 0 0 464 464" xml:space="preserve">
<path fill="#000000" opacity="1.000000" stroke="none" 
	d="
M124.957016,227.483948 
	C126.919250,226.472046 128.828506,225.610672 127.993240,223.290329 
	C127.229836,221.169632 125.185356,221.208710 123.339417,221.187271 
	C120.009918,221.148590 116.678909,221.209320 113.350159,221.144638 
	C110.443298,221.088135 107.852745,220.290665 107.832642,216.784683 
	C107.811348,213.069214 110.640205,212.732071 113.451981,212.728973 
	C135.598557,212.704651 157.745178,212.702393 179.891769,212.696213 
	C191.048340,212.693100 202.205002,212.674530 213.361420,212.716339 
	C215.319168,212.723679 217.358826,212.319626 219.756897,213.664658 
	C218.732040,223.967514 216.370621,234.190521 214.173416,245.291702 
	C207.908203,239.833908 200.964111,239.662582 194.001602,239.234573 
	C189.140884,238.935745 184.454758,237.401001 180.363708,234.761383 
	C166.238159,225.647354 151.549057,225.920441 136.381119,231.579025 
	C131.082748,233.555649 125.712440,235.321533 119.990875,235.758575 
	C116.767799,236.004776 114.032722,235.395630 113.933418,231.669937 
	C113.836487,228.032791 116.729752,227.671707 119.582001,227.665466 
	C121.246185,227.661835 122.910248,227.600052 124.957016,227.483948 
z"/>
<path fill="#000000" opacity="1.000000" stroke="none" 
	d="
M183.000000,252.000000 
	C182.762970,252.231766 182.338669,252.446701 182.316116,252.697723 
	C181.659485,260.007507 176.524780,259.455750 171.255798,259.339020 
	C161.441956,259.121552 151.620026,259.272980 141.801468,259.261383 
	C139.421295,259.258575 137.102417,259.374023 136.730652,255.974960 
	C136.271866,251.780441 133.847397,249.368591 129.490311,249.218063 
	C124.763680,249.054779 122.647949,251.896088 121.679382,256.057190 
	C121.461578,256.992889 121.128410,257.901733 120.859848,258.785065 
	C117.945488,259.079865 116.598656,257.407990 115.850044,255.283127 
	C114.345093,251.011429 114.006088,246.523361 113.846397,242.030533 
	C113.773972,239.992859 114.870331,238.745422 116.859619,238.926453 
	C125.362419,239.700180 132.730896,235.614258 140.484833,233.377380 
	C153.395264,229.652985 165.649872,229.530487 177.390564,237.105270 
	C183.828766,241.259018 191.147110,242.542374 198.775436,242.962967 
	C208.485413,243.498352 212.047470,247.292679 211.417801,255.110413 
	C211.208862,257.704620 210.179214,259.167389 207.485825,259.206451 
	C205.822037,259.230560 204.146286,259.130615 202.496735,259.295197 
	C198.516068,259.692352 195.556671,258.977478 195.592148,254.041840 
	C195.600525,252.876862 194.678009,251.937714 192.990448,250.997894 
	C188.919662,248.939407 185.740891,248.882996 183.000000,252.000000 
M166.259186,241.713455 
	C168.970062,241.604919 171.764618,241.962357 174.521637,240.281647 
	C169.731995,236.373993 164.627884,233.955536 158.608826,234.016434 
	C156.709305,234.035645 153.728912,233.024887 153.746796,236.449890 
	C153.761429,239.246277 154.212891,242.229950 158.410141,241.817215 
	C160.700089,241.592026 163.026566,241.738251 166.259186,241.713455 
M145.192017,241.759506 
	C146.799225,241.602112 148.519958,242.138321 150.077881,240.920258 
	C150.628906,238.804276 150.127823,236.810822 148.936737,234.508499 
	C143.254669,235.409409 137.879349,236.886063 132.407608,241.758301 
	C137.145813,241.758301 140.717514,241.758301 145.192017,241.759506 
z"/>
<path fill="#000000" opacity="1.000000" stroke="none" 
	d="
M260.322723,238.057693 
	C263.937897,238.100311 267.104248,238.033905 270.254791,238.226425 
	C271.983490,238.332047 274.242676,238.246887 273.971344,241.049423 
	C273.745361,243.384140 272.933228,245.201767 270.018524,245.133118 
	C265.767517,245.032990 261.512451,245.107407 257.261566,245.741455 
	C260.063538,245.741455 262.865967,245.710190 265.667267,245.753006 
	C267.391449,245.779327 269.141846,245.916367 269.039124,248.337479 
	C268.951050,250.413132 268.053619,251.930176 265.795258,252.000580 
	C262.654968,252.098495 259.509369,252.025223 256.361359,252.743073 
	C261.085663,252.743073 265.809937,252.743073 270.435760,252.743073 
	C271.778473,258.244415 271.223236,259.152344 266.304352,259.227325 
	C259.875244,259.325348 253.443527,259.251373 246.498306,259.251373 
	C246.939758,252.380798 248.098831,246.417419 249.504456,240.486755 
	C249.935486,238.668091 251.255402,238.256271 252.888565,238.232788 
	C255.215179,238.199326 257.541107,238.117722 260.322723,238.057693 
z"/>
<path fill="#000000" opacity="1.000000" stroke="none" 
	d="
M220.038712,252.150208 
	C220.632294,249.316696 221.474899,246.896713 221.550262,244.453079 
	C221.702240,239.523880 224.120895,237.752106 228.819199,238.048218 
	C232.120956,238.256287 235.454453,237.926529 238.762390,238.080948 
	C241.658157,238.216171 245.202072,237.662064 246.465210,241.218536 
	C247.757782,244.857941 246.636398,248.370560 244.330994,251.411057 
	C243.645218,252.315506 242.658691,252.991882 241.868195,253.719177 
	C241.417160,255.578415 243.992081,256.475372 243.005280,258.667847 
	C239.428375,260.004181 236.383911,259.365326 233.525894,256.265900 
	C229.743652,252.164108 228.773621,252.374786 225.903229,257.273071 
	C224.748184,259.244110 223.066788,259.412292 221.202927,259.056427 
	C219.138290,258.662262 219.396973,257.032532 219.582886,255.514832 
	C219.703781,254.527771 219.821487,253.540329 220.038712,252.150208 
M234.305862,246.728943 
	C235.623337,246.447998 237.178635,247.252426 238.646164,245.559494 
	C235.361557,245.166168 232.474670,245.079895 229.191971,245.645844 
	C230.697769,247.276154 232.234375,246.466019 234.305862,246.728943 
z"/>
<path fill="#000000" opacity="1.000000" stroke="none" 
	d="
M293.177002,228.628265 
	C290.452698,227.977737 288.591187,228.175064 288.049072,231.180832 
	C287.558319,233.901718 285.385437,233.763535 283.325073,233.390686 
	C280.531555,232.885193 281.298401,230.851578 281.608643,229.082642 
	C282.125122,226.137482 282.710144,223.204376 283.232147,220.260117 
	C284.611084,212.482605 283.423767,212.676270 292.807098,212.710449 
	C295.470306,212.720154 298.135223,212.656586 300.796417,212.731140 
	C303.705627,212.812607 307.382538,211.974060 308.315308,215.864105 
	C309.214966,219.616226 308.816254,223.488770 305.566589,226.356949 
	C304.842773,226.995773 303.992645,227.491440 303.026733,228.176392 
	C303.940582,229.652832 304.782043,231.012360 305.788147,232.637878 
	C300.262024,235.070312 296.805084,232.195297 293.177002,228.628265 
M298.907013,220.627213 
	C299.080292,220.396469 299.270599,220.175201 299.409882,219.925507 
	C299.432648,219.884659 299.240112,219.634857 299.131042,219.622437 
	C296.635437,219.338226 294.139099,219.093018 291.718201,220.738968 
	C293.910095,220.738968 296.101959,220.738968 298.907013,220.627213 
z"/>
<path fill="#000000" opacity="1.000000" stroke="none" 
	d="
M287.638611,254.443054 
	C285.760101,252.797653 284.146881,251.387817 282.359222,249.825546 
	C280.517914,251.701599 280.495514,253.875168 280.115967,255.909729 
	C279.628998,258.520172 278.041962,259.549347 275.458527,259.159790 
	C272.492615,258.712494 272.918396,256.774719 273.347321,254.660187 
	C274.171417,250.597565 274.645111,246.454636 275.641266,242.438568 
	C276.766602,237.901917 279.779633,237.051590 283.317139,240.119751 
	C286.192078,242.613297 288.920349,245.275970 291.728668,247.877533 
	C294.089661,246.550995 293.609528,244.331421 293.813049,242.486847 
	C294.176117,239.196548 295.744354,237.584641 299.094238,238.256790 
	C302.548553,238.949860 301.108887,241.444153 300.785736,243.416321 
	C300.222412,246.854233 299.618073,250.288589 298.905212,253.698151 
	C297.609070,259.897308 294.805328,260.830566 290.117096,256.693085 
	C289.369232,256.033051 288.641144,255.350662 287.638611,254.443054 
z"/>
<path fill="#000000" opacity="1.000000" stroke="none" 
	d="
M335.560730,239.404358 
	C340.149933,237.368668 342.720520,238.860397 344.301666,243.156143 
	C346.126495,248.113907 348.313721,252.938263 350.329742,257.787262 
	C344.825226,260.655334 332.426147,259.746796 330.986572,256.542480 
	C327.234711,259.765167 326.678680,259.878906 320.893982,258.128967 
	C325.814209,251.789627 330.539246,245.701813 335.560730,239.404358 
M338.514893,249.437485 
	C334.586487,247.057373 335.658173,251.711655 334.115173,252.763107 
	C335.309906,251.211151 339.845306,255.618881 338.514893,249.437485 
z"/>
<path fill="#000000" opacity="1.000000" stroke="none" 
	d="
M258.173859,231.772369 
	C255.591309,234.228180 252.872437,233.185272 249.056351,233.490143 
	C253.913651,225.909164 258.842102,219.953217 263.855347,214.117416 
	C266.042938,211.570877 270.530457,212.403732 271.897278,215.408310 
	C274.419739,220.953110 276.558197,226.672592 279.272552,233.340973 
	C272.583405,233.340973 266.577271,233.295593 260.572815,233.374680 
	C259.170074,233.393158 260.342865,230.609024 258.173859,231.772369 
M262.590302,227.736755 
	C264.066956,227.032227 265.901154,228.087204 267.317963,226.769775 
	C267.807434,225.058380 267.591827,223.656586 265.478363,222.835129 
	C264.415161,224.547913 262.321503,225.454330 262.590302,227.736755 
z"/>
<path fill="#000000" opacity="1.000000" stroke="none" 
	d="
M232.442291,212.738983 
	C237.555847,212.722107 242.217697,212.707214 246.879364,212.730026 
	C248.764511,212.739258 250.774826,212.722626 250.525818,215.506104 
	C250.327515,217.722702 249.436768,219.315689 246.838745,219.301193 
	C243.342911,219.281693 239.840393,219.486237 236.352310,219.332413 
	C232.944748,219.182129 231.342911,220.714645 231.376617,223.992386 
	C231.412598,227.492615 234.171204,226.601028 236.151413,226.696609 
	C238.975815,226.832947 241.811356,226.719101 244.640182,226.790146 
	C246.323853,226.832413 248.166946,226.846054 247.954483,229.361038 
	C247.796600,231.230240 247.600479,233.273575 245.110886,233.306091 
	C239.287155,233.382172 233.460938,233.315933 227.636429,233.247894 
	C226.209610,233.231247 225.125854,232.423676 224.386185,231.218033 
	C222.270996,227.770264 225.542877,215.439941 229.133392,213.541840 
	C229.985962,213.091141 231.032944,213.008209 232.442291,212.738983 
z"/>
<path fill="#000000" opacity="1.000000" stroke="none" 
	d="
M325.453217,238.134369 
	C328.062042,238.664093 328.356201,240.132889 327.855408,241.978561 
	C327.389404,243.695847 326.516296,245.312851 324.514740,245.040756 
	C318.480347,244.220490 317.124451,247.780685 316.871490,252.680237 
	C316.795227,254.156937 316.387268,255.630508 316.012268,257.074615 
	C315.391846,259.463776 313.454437,259.376587 311.597595,259.194519 
	C309.313232,258.970551 309.089844,257.427002 309.451843,255.564713 
	C309.737000,254.097900 309.878143,252.596329 310.256836,251.155823 
	C311.213593,247.516525 311.026123,244.823135 306.141846,245.115601 
	C304.039124,245.241501 302.630524,244.358185 302.824738,241.871033 
	C303.010498,239.491943 304.154663,238.142914 306.568970,238.124695 
	C312.717743,238.078278 318.866974,238.092453 325.453217,238.134369 
z"/>
<path fill="#000000" opacity="1.000000" stroke="none" 
	d="
M357.211670,259.288727 
	C353.805115,259.420044 352.315430,258.265106 352.930939,255.123642 
	C353.824402,250.563858 354.839233,246.019165 355.492859,241.424011 
	C355.963959,238.112106 358.016693,237.858231 360.513153,238.284012 
	C363.316071,238.762070 362.497986,240.919601 362.185699,242.629288 
	C361.625916,245.693619 360.717651,248.709412 361.158386,252.063354 
	C365.010529,253.350891 368.860992,251.658813 372.594574,252.453400 
	C374.339264,252.824692 377.081238,251.602219 376.913269,254.941986 
	C376.770874,257.772797 375.414368,259.461761 372.151184,259.335938 
	C367.335876,259.150238 362.507935,259.291351 357.211670,259.288727 
z"/>
<path fill="#000000" opacity="1.000000" stroke="none" 
	d="
M182.903366,252.377594 
	C185.740891,248.882996 188.919662,248.939407 192.660706,250.852417 
	C194.269363,253.295731 195.838013,255.498550 194.753021,258.402679 
	C193.475113,261.823120 189.657959,263.783051 186.347870,262.619598 
	C182.487335,261.262665 181.362701,258.129822 182.903366,252.377594 
z"/>
<path fill="#000000" opacity="1.000000" stroke="none" 
	d="
M124.803436,251.900360 
	C128.030640,249.480606 130.953247,249.566040 133.641083,251.992462 
	C135.634750,253.792236 136.368164,256.064331 135.401001,258.728088 
	C134.066635,262.403229 129.948532,264.257568 126.551285,262.685028 
	C122.696213,260.900543 121.954849,257.047852 124.803436,251.900360 
z"/>
<path fill="#000000" opacity="1.000000" stroke="none" 
	d="
M100.301865,234.692261 
	C98.393066,232.203247 98.253822,229.926865 100.687668,228.434601 
	C102.885918,227.086777 105.511124,227.129120 107.698250,228.682083 
	C110.230873,230.480362 109.669838,234.298874 106.759689,235.424728 
	C104.689781,236.225555 102.564568,236.283295 100.301865,234.692261 
z"/>
</svg>